<svg width="103" height="32" viewBox="0 0 103 32" fill="none" xmlns="http://www.w3.org/2000/svg">
<path d="M54.5046 8.04048C54.5046 9.19374 53.5754 10.1224 52.4221 10.1224C51.2689 10.1224 50.3402 9.19374 50.3402 8.04048C50.3402 6.88723 51.2372 5.9586 52.4221 5.9586C53.608 5.9906 54.5046 6.91955 54.5046 8.04048ZM45.9199 12.2369V12.7495C45.9199 12.7495 44.9272 11.4676 42.813 11.4676C39.3219 11.4676 36.5988 14.1264 36.5988 17.8099C36.5988 21.4617 39.2899 24.1522 42.813 24.1522C44.9592 24.1522 45.9199 22.8389 45.9199 22.8389V23.3832C45.9199 23.6395 46.1125 23.8312 46.3685 23.8312H48.9627V11.787H46.3685C46.1125 11.7879 45.9199 12.0126 45.9199 12.2369ZM45.9199 19.9561C45.4399 20.661 44.4786 21.2697 43.3257 21.2697C41.2758 21.2697 39.7059 19.9884 39.7059 17.8099C39.7059 15.6317 41.2758 14.3504 43.3257 14.3504C44.4469 14.3504 45.4719 14.9911 45.9199 15.6637V19.9561ZM50.8849 11.7879H53.9597V23.8322H50.8849V11.7879ZM96.8184 11.4673C94.7042 11.4673 93.7109 12.7492 93.7109 12.7492V5.9906H90.6361V23.8322H93.2309C93.4872 23.8322 93.6789 23.6078 93.6789 23.3835V22.8392C93.6789 22.8392 94.6722 24.1525 96.7857 24.1525C100.277 24.1525 103 21.4626 103 17.8108C103 14.1591 100.277 11.4673 96.8184 11.4673ZM96.3057 21.2373C95.1201 21.2373 94.1915 20.6293 93.7109 19.9241V15.6317C94.1915 14.9911 95.2165 14.3184 96.3057 14.3184C98.3556 14.3184 99.9252 15.5997 99.9252 17.7779C99.9252 19.9561 98.3559 21.2373 96.3057 21.2373ZM89.0348 16.6893V23.8642H85.9594V17.0413C85.9594 15.0557 85.3187 14.2544 83.5901 14.2544C82.6615 14.2544 81.7002 14.7351 81.0907 15.44V23.8325H78.0165V11.7882H80.4501C80.7064 11.7882 80.8987 12.0126 80.8987 12.2369V12.7495C81.7956 11.8202 82.9805 11.4676 84.1655 11.4676C85.5111 11.4676 86.6323 11.8526 87.5293 12.6212C88.6179 13.5181 89.0348 14.6711 89.0348 16.6893ZM70.552 11.4673C68.4384 11.4673 67.4452 12.7492 67.4452 12.7492V5.9906H64.3704V23.8322H66.9646C67.2209 23.8322 67.4132 23.6078 67.4132 23.3835V22.8392C67.4132 22.8392 68.4064 24.1525 70.52 24.1525C74.0118 24.1525 76.7343 21.4626 76.7343 17.8108C76.7663 14.1588 74.0438 11.4673 70.552 11.4673ZM70.0394 21.2373C68.8544 21.2373 67.9258 20.6293 67.4452 19.9241V15.6317C67.9258 14.9911 68.9508 14.3184 70.0394 14.3184C72.0899 14.3184 73.6591 15.5997 73.6591 17.7779C73.6591 19.9561 72.0899 21.2373 70.0394 21.2373ZM61.7115 11.4673C62.6402 11.4673 63.1208 11.6279 63.1208 11.6279V14.4784C63.1208 14.4784 60.5583 13.6135 58.957 15.4397V23.8638H55.8816V11.7879H58.4764C58.7327 11.7879 58.9244 12.0122 58.9244 12.2366V12.7492C59.5017 12.0762 60.7509 11.4673 61.7115 11.4673ZM29.7765 22.7429C29.6165 22.3586 29.4562 21.9423 29.2962 21.5897C29.0396 21.0133 28.7832 20.4684 28.5596 19.9561L28.5276 19.9241C26.3171 15.1191 23.9472 10.2507 21.4483 5.4463L21.3524 5.25365C21.0895 4.75525 20.8334 4.25336 20.584 3.74809C20.2634 3.17114 19.9434 2.56315 19.4308 1.9862C18.4059 0.704946 16.9323 0 15.363 0C13.7611 0 12.3199 0.70495 11.2633 1.92189C10.7827 2.49819 10.43 3.10683 10.11 3.68377C9.86003 4.18872 9.60391 4.69061 9.34172 5.18934L9.2454 5.38197C6.77889 10.1864 4.3767 15.0551 2.1665 19.8598L2.13419 19.9234C1.91019 20.4367 1.65355 20.981 1.39724 21.557C1.23724 21.9096 1.07725 22.294 0.91725 22.7103C0.500618 23.8952 0.372295 25.0165 0.532931 26.17C0.885244 28.5726 2.48649 30.5898 4.69701 31.4874C5.52995 31.84 6.39489 32 7.29152 32C7.54783 32 7.86783 31.968 8.12447 31.9357C9.18173 31.8077 10.2707 31.4557 11.3279 30.8471C12.6412 30.1101 13.8904 29.0535 15.2997 27.5159C16.7089 29.0535 17.9902 30.1101 19.2714 30.8471C20.329 31.4557 21.4176 31.8077 22.4746 31.9357C22.7309 31.9683 23.0515 32 23.3078 32C24.2048 32 25.1014 31.84 25.902 31.4874C28.1445 30.5898 29.7138 28.5406 30.0664 26.17C30.3208 25.0491 30.1928 23.9285 29.7765 22.7429ZM15.3307 24.4085C13.6008 22.2303 12.4796 20.1804 12.0956 18.4512C11.9356 17.7142 11.9033 17.0736 11.9996 16.497C12.0633 15.9843 12.2559 15.5357 12.5122 15.1514C13.1208 14.2871 14.1458 13.7421 15.331 13.7421C16.5166 13.7421 17.5736 14.2548 18.1502 15.1514C18.4065 15.5357 18.5985 15.9846 18.6631 16.497C18.7588 17.0739 18.7268 17.7462 18.5668 18.4512C18.1812 20.1484 17.06 22.1986 15.3307 24.4085ZM28.1106 25.914C27.8866 27.5796 26.7654 29.0215 25.1961 29.6621C24.4275 29.9821 23.5942 30.0784 22.7619 29.9821C21.9613 29.8858 21.16 29.6295 20.3277 29.1495C19.1745 28.5082 18.0215 27.5159 16.676 26.042C18.7899 23.4478 20.0711 21.077 20.5517 18.9635C20.7761 17.9702 20.8084 17.0736 20.7117 16.2403C20.5841 15.4397 20.2954 14.7027 19.8471 14.0621C18.8535 12.6202 17.1876 11.7879 15.3304 11.7879C13.4732 11.7879 11.8073 12.6529 10.8143 14.0621C10.366 14.7027 10.0774 15.4397 9.94938 16.2403C9.82138 17.0736 9.85306 18.0022 10.1094 18.9635C10.5897 21.077 11.903 23.4795 13.9848 26.074C12.6716 27.5476 11.4863 28.5409 10.3331 29.1815C9.50011 29.6621 8.69981 29.9184 7.89919 30.0141C7.03457 30.1104 6.2013 29.9821 5.46468 29.6941C3.89543 29.0535 2.77417 27.6116 2.55018 25.946C2.45418 25.1454 2.51786 24.3448 2.83849 23.4478C2.93417 23.1272 3.0948 22.8072 3.2548 22.4229C3.47912 21.9103 3.73479 21.3653 3.99143 20.821L4.02375 20.7573C6.23362 15.9843 8.60382 11.1156 11.0703 6.37523L11.1663 6.1826C11.423 5.70261 11.6793 5.18998 11.9353 4.70935C12.1916 4.19672 12.4796 3.71609 12.8322 3.29945C13.5048 2.53147 14.4015 2.11452 15.3947 2.11452C16.388 2.11452 17.2846 2.53147 17.9572 3.29945C18.3099 3.71705 18.5978 4.19768 18.8542 4.70935C19.1108 5.18998 19.3671 5.70261 19.6228 6.1826L19.7191 6.37523C22.148 11.1353 24.4867 15.9409 26.734 20.7893V20.8213C26.9906 21.3346 27.2146 21.9106 27.471 22.4239C27.6309 22.8075 27.7913 23.1275 27.8873 23.4482C28.1429 24.2802 28.2389 25.0814 28.1106 25.914Z" fill="#191825" fill-opacity="0.5"/>
</svg>
