<svg width="190" height="32" viewBox="0 0 190 32" fill="none" xmlns="http://www.w3.org/2000/svg">
<mask id="mask0_1_1035" style="mask-type:luminance" maskUnits="userSpaceOnUse" x="0" y="0" width="190" height="32">
<path d="M189.121 0H0.5177V32H189.121V0Z" fill="white"/>
</mask>
<g mask="url(#mask0_1_1035)">
<mask id="mask1_1_1035" style="mask-type:luminance" maskUnits="userSpaceOnUse" x="0" y="0" width="190" height="32">
<path d="M189.121 0H0.5177V32H189.121V0Z" fill="white"/>
</mask>
<g mask="url(#mask1_1_1035)">
<path d="M74.4747 3.50312C74.4747 1.92283 75.7566 0.633545 77.3443 0.633545C78.9246 0.633545 80.2139 1.91546 80.2139 3.50312C80.1586 5.08342 78.8251 6.31744 77.2412 6.26219C75.7382 6.20693 74.5337 5.00238 74.4747 3.50312Z" fill="#191825" fill-opacity="0.5"/>
</g>
<mask id="mask2_1_1035" style="mask-type:luminance" maskUnits="userSpaceOnUse" x="0" y="0" width="190" height="32">
<path d="M189.121 0H0.5177V32H189.121V0Z" fill="white"/>
</mask>
<g mask="url(#mask2_1_1035)">
<path d="M119.699 22.6177C119.699 21.0263 120.981 19.7407 122.557 19.7407C124.145 19.7407 125.431 21.0263 125.431 22.6177C125.431 24.2053 124.145 25.4909 122.557 25.4909C120.981 25.4909 119.699 24.2016 119.699 22.6177Z" fill="#191825" fill-opacity="0.5"/>
</g>
<mask id="mask3_1_1035" style="mask-type:luminance" maskUnits="userSpaceOnUse" x="0" y="0" width="190" height="32">
<path d="M189.121 0H0.5177V32H189.121V0Z" fill="white"/>
</mask>
<g mask="url(#mask3_1_1035)">
<path d="M27.4455 21.3763C24.9812 21.3763 23.2609 19.4166 23.2609 16.6133C23.2609 13.8137 24.9775 11.854 27.4455 11.854C29.9246 11.854 31.6633 13.8137 31.6633 16.6133C31.6596 19.4608 29.9652 21.3763 27.4455 21.3763ZM27.4455 7.66939C22.2258 7.66939 18.4353 11.4304 18.4353 16.6133C18.4353 21.7962 22.2295 25.5573 27.4455 25.5573C32.6911 25.5573 36.4926 21.7962 36.4926 16.617C36.4926 11.4304 32.6837 7.66939 27.4455 7.66939ZM68.9273 17.0627C68.7468 16.7128 68.5147 16.3849 68.2458 16.0976L68.0874 15.9318L68.2532 15.7735C68.4926 15.5193 68.7394 15.2209 68.9715 14.8746L73.5798 8.02302H67.9843L64.5216 13.3827C64.3264 13.6738 63.9322 13.8101 63.3392 13.8101H62.5472V3.67629C62.5472 1.65027 61.2874 1.37769 59.9207 1.37769H57.5853L57.589 25.292H62.5435V18.1236H63.0076C63.5712 18.1236 63.9543 18.1899 64.1348 18.4957L66.8681 23.6565C67.6343 25.0563 68.3932 25.2957 69.8224 25.2957H73.6313L70.7986 20.6212L68.9273 17.0627ZM92.9964 7.63255C90.473 7.63255 88.8633 8.75238 87.9645 9.70277L87.6661 10.0085L87.5593 9.59594C87.294 8.57925 86.4026 8.0267 85.0581 8.0267H82.8368L82.8515 25.2957H87.7766V17.339C87.7766 16.5581 87.8761 15.8876 88.0823 15.2688C88.6312 13.4049 90.1599 12.2408 92.0681 12.2408C93.6042 12.2408 94.2083 13.0512 94.2083 15.1509V22.6729C94.2083 24.4595 95.0334 25.2994 96.8274 25.2994H99.1665L99.1554 14.3147C99.1554 9.93484 97.0226 7.63255 92.9964 7.63255ZM77.4071 8.02302H75.0716L75.0864 21.3763V25.292H77.5765L77.6649 25.2957L78.829 25.292H79.982V25.2884H79.993L80.0041 10.6495C79.9967 8.88131 79.1531 8.02302 77.4071 8.02302ZM46.7811 21.3763C44.3167 21.3763 42.5964 19.4166 42.5964 16.6133C42.5964 13.8137 44.3167 11.854 46.7811 11.854C49.2565 11.854 50.9989 13.8137 50.9989 16.6133C50.9952 19.4608 49.3007 21.3763 46.7811 21.3763ZM46.7811 7.66939C41.5576 7.66939 37.7635 11.4304 37.7635 16.6133C37.7635 21.7962 41.5576 25.5573 46.7811 25.5573C52.0156 25.5573 55.8282 21.7962 55.8282 16.617C55.8282 11.4304 52.0193 7.66939 46.7811 7.66939Z" fill="#191825" fill-opacity="0.5"/>
</g>
</g>
<mask id="mask4_1_1035" style="mask-type:luminance" maskUnits="userSpaceOnUse" x="0" y="0" width="190" height="32">
<path d="M189.121 0H0.5177V32H189.121V0Z" fill="white"/>
</mask>
<g mask="url(#mask4_1_1035)">
<mask id="mask5_1_1035" style="mask-type:luminance" maskUnits="userSpaceOnUse" x="0" y="0" width="190" height="32">
<path d="M189.081 0.629883H0.5177V31.9595H189.081V0.629883Z" fill="white"/>
</mask>
<g mask="url(#mask5_1_1035)">
<mask id="mask6_1_1035" style="mask-type:luminance" maskUnits="userSpaceOnUse" x="0" y="0" width="190" height="32">
<path d="M189.121 0H0.5177V32H189.121V0Z" fill="white"/>
</mask>
<g mask="url(#mask6_1_1035)">
<path d="M152.31 21.3763C149.846 21.3763 148.126 19.4166 148.126 16.6134C148.126 13.8138 149.846 11.8541 152.31 11.8541C154.789 11.8541 156.528 13.8138 156.528 16.6134C156.528 19.4608 154.83 21.3763 152.31 21.3763ZM152.31 7.66943C147.087 7.66943 143.293 11.4305 143.293 16.6134C143.293 21.7963 147.08 25.5573 152.31 25.5573C157.548 25.5573 161.357 21.7963 161.357 16.6171C161.357 11.4305 157.545 7.66943 152.31 7.66943Z" fill="#191825" fill-opacity="0.5"/>
</g>
<mask id="mask7_1_1035" style="mask-type:luminance" maskUnits="userSpaceOnUse" x="0" y="0" width="190" height="32">
<path d="M189.121 0H0.5177V32H189.121V0Z" fill="white"/>
</mask>
<g mask="url(#mask7_1_1035)">
<path d="M109.532 20.6101C106.839 20.6101 105.885 18.2636 105.885 16.0645C105.885 15.092 106.132 11.9351 109.282 11.9351C110.843 11.9351 112.925 12.3845 112.925 16.2229C112.921 19.8513 111.076 20.6101 109.532 20.6101ZM115.477 7.97883C114.542 7.97883 113.824 8.35088 113.463 9.03236L113.33 9.29758L113.102 9.09498C112.306 8.40613 110.88 7.59204 108.571 7.59204C103.966 7.59204 100.868 11.0473 100.868 16.1971C100.868 21.3395 104.077 24.9311 108.666 24.9311C110.232 24.9311 111.473 24.5627 112.453 23.8186L112.829 23.535V24.0138C112.829 26.3235 111.337 27.5943 108.633 27.5943C107.314 27.5943 106.121 27.2739 105.322 26.9829C104.279 26.6661 103.664 26.9313 103.244 27.9738L102.85 28.9389L102.297 30.3497L102.64 30.5302C104.371 31.4511 106.626 31.9963 108.659 31.9963C112.851 31.9963 117.747 29.8524 117.747 23.8112L117.761 7.96778H115.477" fill="#191825" fill-opacity="0.5"/>
</g>
</g>
</g>
<mask id="mask8_1_1035" style="mask-type:luminance" maskUnits="userSpaceOnUse" x="0" y="0" width="190" height="32">
<path d="M189.121 0H0.5177V32H189.121V0Z" fill="white"/>
</mask>
<g mask="url(#mask8_1_1035)">
<mask id="mask9_1_1035" style="mask-type:luminance" maskUnits="userSpaceOnUse" x="0" y="0" width="190" height="32">
<path d="M189.121 0H0.5177V32H189.121V0Z" fill="white"/>
</mask>
<g mask="url(#mask9_1_1035)">
<path d="M9.11169 21.1737L5.10018 21.17V16.3812C5.10018 15.3535 5.49802 14.8267 6.37105 14.7015H9.10432C11.053 14.7015 12.3128 15.9318 12.3202 17.921C12.3202 19.9654 11.0898 21.1737 9.11169 21.1737ZM5.10018 8.25136V6.99154C5.10018 5.88644 5.56432 5.36337 6.59206 5.29706H8.64387C10.401 5.29706 11.4545 6.35059 11.4545 8.11138C11.4545 9.45592 10.7325 11.0215 8.70649 11.0215H5.10018V8.25136ZM14.2246 13.0328L13.5026 12.6239L14.1325 12.0824C14.8729 11.4525 16.0996 10.0269 16.0996 7.56988C16.0996 3.80886 13.1858 1.38501 8.67334 1.38501H2.94155C1.60438 1.4329 0.532435 2.52694 0.5177 3.86412V25.1999H8.78016C13.7973 25.1999 17.0316 22.4703 17.0316 18.2415C17.0316 15.9723 15.9817 14.0237 14.2246 13.0328Z" fill="#191825" fill-opacity="0.5"/>
</g>
<mask id="mask10_1_1035" style="mask-type:luminance" maskUnits="userSpaceOnUse" x="0" y="0" width="190" height="32">
<path d="M189.121 0H0.5177V32H189.121V0Z" fill="white"/>
</mask>
<g mask="url(#mask10_1_1035)">
<path d="M183.349 7.68776C181.294 7.69145 179.345 8.63815 178.063 10.2516L177.706 10.701L177.426 10.1963C176.512 8.53133 174.947 7.69145 172.759 7.69145C170.471 7.69145 168.935 8.966 168.22 9.72852L167.756 10.2332L167.576 9.56644C167.318 8.60868 166.463 8.08192 165.174 8.08192H163.104L163.082 25.2846H167.782V17.6889C167.782 17.0222 167.863 16.3665 168.029 15.6776C168.478 13.8432 169.712 11.8687 171.786 12.064C173.061 12.1892 173.687 13.1764 173.687 15.0809V25.281H178.42V17.6852C178.42 16.8527 178.498 16.2265 178.686 15.6076C179.061 13.8542 180.354 12.0566 182.355 12.0566C183.802 12.0566 184.34 12.8744 184.34 15.0809V22.765C184.34 24.5 185.114 25.281 186.852 25.281H189.062L189.066 14.2999C189.081 9.90902 187.147 7.68776 183.349 7.68776ZM140.571 19.3097C140.556 19.3245 138.534 21.461 135.87 21.461C133.443 21.461 130.993 19.9728 130.993 16.6501C130.993 13.7806 132.894 11.773 135.616 11.773C136.5 11.773 137.502 12.0897 137.661 12.6202L137.683 12.7086C137.889 13.4638 138.578 13.9831 139.355 13.9795L141.93 13.9832V11.7287C141.93 8.75603 138.154 7.68408 135.609 7.68408C130.172 7.68408 126.23 11.4672 126.23 16.6796C126.23 21.8883 130.131 25.6714 135.509 25.6714C140.177 25.6714 142.711 22.6029 142.737 22.5771L142.869 22.4114L140.829 19.0261L140.571 19.3097Z" fill="#191825" fill-opacity="0.5"/>
</g>
</g>
</svg>
