<svg width="70" height="71" viewBox="0 0 70 71" fill="none" xmlns="http://www.w3.org/2000/svg">
<circle cx="35" cy="35.5" r="35" fill="#EDEDED"/>
<path d="M58.906 44.382L19.9591 53.377C18.4979 53.7344 17.0367 52.7218 16.7557 51.173L11.3042 24.9624C10.967 23.4136 11.9224 21.8647 13.3836 21.5669L52.3305 12.5719C53.7918 12.2145 55.253 13.2272 55.534 14.776L60.9292 41.0461C61.2664 42.5354 60.3672 44.0842 58.906 44.382Z" fill="#872BFF"/>
<path d="M16.6995 51.173L11.3042 24.9624L16.6995 51.173Z" fill="#383E56"/>
<path d="M56.2092 17.7134L11.9489 27.9305L13.0492 33.2854L57.3095 23.0683L56.2092 17.7134Z" fill="#5B5D6E"/>
<path opacity="0.15" d="M54.2976 28.7747V55.6406C54.2976 56.2959 54.0728 56.9511 53.6794 57.4277C53.2298 57.8447 52.6116 58.083 51.9934 58.083H12.0911C10.5736 58.083 9.39343 56.7724 9.39343 55.2236V28.3578C9.39343 27.7025 9.61823 27.0472 10.0116 26.5707C10.4612 26.1537 11.0794 25.9154 11.6977 25.9154H51.5438C53.0612 25.8558 54.2976 27.1664 54.2976 28.7747Z" fill="black"/>
<path opacity="0.15" d="M54.2976 28.7747V55.6406C54.2976 56.2959 54.0728 56.9511 53.6794 57.4277C53.1735 58.083 52.4429 58.4999 51.5999 58.4999H11.6976C10.1802 58.4999 9 57.1894 9 55.6406V28.7747C9 27.8812 9.3934 27.1068 10.0116 26.5707C10.4612 26.1537 11.0794 25.9154 11.6976 25.9154H51.5437C53.0611 25.8558 54.2976 27.1664 54.2976 28.7747Z" fill="black"/>
<path d="M51.5437 58.4999H11.6976C10.1802 58.4999 9 57.1894 9 55.6406V28.7747C9 27.1664 10.2364 25.9154 11.6976 25.9154H51.5437C53.0611 25.9154 54.2414 27.2259 54.2414 28.7747V55.6406C54.2414 57.1894 53.0611 58.4999 51.5437 58.4999Z" fill="#872BFF"/>
<path d="M21.9823 45.633H14.0581C13.4961 45.633 13.0464 45.1564 13.0464 44.5607V39.7356C13.0464 39.1399 13.4961 38.6633 14.0581 38.6633H21.9823C22.5443 38.6633 22.9939 39.1399 22.9939 39.7356V44.6203C22.9939 45.1564 22.5443 45.633 21.9823 45.633Z" fill="#E5CF89"/>
<path d="M48.7899 53.4366H39.4607C39.2359 53.4366 39.011 53.6154 39.011 53.9132V54.4493C39.011 54.6876 39.1797 54.9259 39.4607 54.9259H48.7899C49.0147 54.9259 49.2395 54.7472 49.2395 54.4493V53.9132C49.2395 53.6154 49.0147 53.4366 48.7899 53.4366Z" fill="#5B5D6E"/>
<path d="M37.2126 53.4366H23.1063C22.8815 53.4366 22.6567 53.6154 22.6567 53.9132V54.4493C22.6567 54.6876 22.8253 54.9259 23.1063 54.9259H37.2126C37.4374 54.9259 37.6622 54.7472 37.6622 54.4493V53.9132C37.6622 53.6154 37.4936 53.4366 37.2126 53.4366Z" fill="#5B5D6E"/>
</svg>
