<svg width="70" height="81" viewBox="0 0 70 81" fill="none" xmlns="http://www.w3.org/2000/svg">
<circle cx="35" cy="45.5" r="35" fill="#EDEDED"/>
<path d="M31 2.98279H28.3334V21.6035H31V2.98279Z" fill="#5B5D6E"/>
<path d="M41.6667 2.98279H39V21.6035H41.6667V2.98279Z" fill="#5B5D6E"/>
<path d="M21.6667 72.5001H19.0001C18.2638 72.5001 17.6667 71.9442 17.6667 71.2587V65.0518H23V71.2587C23.0001 71.9442 22.403 72.5001 21.6667 72.5001Z" fill="#464655"/>
<path d="M51 72.5001H48.3334C47.5971 72.5001 47 71.9442 47 71.2587V65.0518H52.3333V71.2587C52.3334 71.9442 51.7364 72.5001 51 72.5001Z" fill="#464655"/>
<path d="M52.3334 67.5346H17.6666C16.1938 67.5346 15 66.4231 15 65.0518V26.569C15 23.1411 17.9849 20.3621 21.6667 20.3621H48.3333C52.0151 20.3621 55 23.1411 55 26.569V65.0517C55 66.4231 53.8062 67.5346 52.3334 67.5346Z" fill="#872BFF"/>
<path d="M47 38.9828H23.0001C21.5273 38.9828 20.3334 40.0943 20.3334 41.4655V56.3621C20.3334 57.7333 21.5273 58.8448 23.0001 58.8448H47.0001C48.4729 58.8448 49.6667 57.7333 49.6667 56.3621V41.4655C49.6666 40.0943 48.4728 38.9828 47 38.9828Z" fill="#6A14DA"/>
<path d="M47 34.0173H23.0001C21.5273 34.0173 20.3334 32.9058 20.3334 31.5345V27.8104C20.3334 26.4391 21.5273 25.3276 23.0001 25.3276H47.0001C48.4729 25.3276 49.6667 26.4391 49.6667 27.8104V31.5345C49.6666 32.9058 48.4728 34.0173 47 34.0173Z" fill="#6A14DA"/>
<path d="M41.6667 4.22417H28.3333C27.597 4.22417 26.9999 3.66828 26.9999 2.98273V1.74144C26.9999 1.05589 27.597 0.5 28.3333 0.5H41.6667C42.403 0.5 43.0001 1.05589 43.0001 1.74144V2.98288C43.0001 3.66828 42.403 4.22417 41.6667 4.22417Z" fill="#707487"/>
<path d="M15 63.8104H55V65.0519C55 66.4231 53.8062 67.5346 52.3334 67.5346H17.6666C16.1938 67.5346 15 66.4231 15 65.0519V63.8104Z" fill="#5B5D6E"/>
</svg>
