<svg width="151" height="32" viewBox="0 0 151 32" fill="none" xmlns="http://www.w3.org/2000/svg">
<path fill-rule="evenodd" clip-rule="evenodd" d="M10.0579 21.0837C9.73817 20.7951 9.31067 20.6177 8.84294 20.6177H8.22249C7.78135 20.6177 7.11726 20.0297 7.11726 19.5404V16.917V15.2623V12.0115H8.58112C9.56499 12.0115 10.3702 11.2242 10.3702 10.2622C10.3702 9.30016 9.56499 8.51281 8.58112 8.51281H7.11726V6.13209C7.11726 5.04407 6.20703 4.15472 5.0943 4.15472C3.98226 4.15472 3.07203 5.04407 3.07203 6.13209V8.51281H2.04794C1.06408 8.51281 0.25885 9.30016 0.25885 10.2622C0.25885 11.2242 1.06408 12.0115 2.04794 12.0115H3.07203C3.07203 14.9303 3.07203 17.6537 3.07203 20.5724C3.04408 21.1891 3.32703 21.8191 3.32703 21.8191C3.77635 22.9511 4.79158 23.8071 6.03317 24.0538C6.27249 24.1011 6.51999 24.1265 6.77294 24.1265H8.84294C9.82953 24.1265 10.6368 23.3365 10.6368 22.3718C10.6368 22.0224 10.5311 21.6964 10.3498 21.4224C10.2673 21.2977 10.1691 21.1844 10.0579 21.0837ZM44.9636 17.0563H37.1773C38.8068 22.4151 43.4254 20.5764 45.2609 19.779C45.9298 19.489 47.4318 20.2204 47.2518 21.4404C47.0718 22.6598 45.4593 23.1931 45.4593 23.1931C45.4593 23.1931 43.4125 24.0165 40.9225 23.9218C36.3877 23.7491 33.1552 20.3197 33.0182 15.8223C33.1559 11.3249 36.6454 7.72279 40.9307 7.72279C47.5982 7.72279 51.3591 17.0563 46.8414 17.0563H44.9636ZM44.9636 14.3336C44.6261 12.3942 42.9918 10.8209 41.0704 10.8209C39.1498 10.8209 37.5045 12.3376 37.1773 14.3336H44.9636ZM57.8677 21.0837C57.5479 20.7951 57.1204 20.6177 56.6527 20.6177H56.0323C55.5904 20.6177 54.9263 20.0297 54.9263 19.5404V16.917V15.2623V12.0115H56.3909C57.3748 12.0115 58.18 11.2242 58.18 10.2622C58.18 9.30016 57.3748 8.51281 56.3909 8.51281H54.9263V6.13209C54.9263 5.04407 54.0168 4.15472 52.9041 4.15472C51.792 4.15472 50.8818 5.04407 50.8818 6.13209V8.51281H49.857C48.8739 8.51281 48.0686 9.30016 48.0686 10.2622C48.0686 11.2242 48.8739 12.0115 49.857 12.0115H50.8818C50.8818 14.9303 50.8818 17.6537 50.8818 20.5724C50.8539 21.1891 51.1368 21.8191 51.1368 21.8191C51.5861 22.9511 52.6014 23.8071 53.8429 24.0538C54.0823 24.1011 54.3291 24.1265 54.5827 24.1265H56.6527C57.6393 24.1265 58.4466 23.3365 58.4466 22.3718C58.4466 22.0224 58.3409 21.6964 58.1595 21.4224C58.077 21.2977 57.9789 21.1844 57.8677 21.0837ZM19.2829 9.97684V21.8764C19.2829 22.9638 20.1932 23.8538 21.3052 23.8538C22.4179 23.8538 23.3275 22.9638 23.3275 21.8764V20.5611V19.887L25.1357 17.859L25.4091 18.2263L28.9757 23.0304C29.6091 23.8825 30.8398 24.0738 31.7111 23.4545C32.5825 22.8358 32.7782 21.6324 32.1454 20.7804L28.0491 15.2643L31.7139 11.1535C32.3691 10.4188 32.29 9.29349 31.5386 8.65281C30.7873 8.0128 29.6364 8.09013 28.9818 8.82481L25.8645 12.3216L23.3275 15.1676V8.90548V4.34139C23.3275 3.25403 22.4179 2.36401 21.3052 2.36401C20.1945 2.36401 19.2857 3.25203 19.2829 4.33739C19.2829 4.33872 19.2829 4.34006 19.2829 4.34139V9.97684ZM14.3459 7.83746C15.4579 7.83746 16.3682 8.72748 16.3682 9.81484V21.5571C16.3682 22.6444 15.4579 23.5345 14.3459 23.5345C13.2332 23.5345 12.3236 22.6444 12.3236 21.5571V9.81484C12.3236 8.72748 13.2332 7.83746 14.3459 7.83746Z" fill="#191825" fill-opacity="0.5"/>
<path fill-rule="evenodd" clip-rule="evenodd" d="M100.066 15.769C100.066 12.6789 102.422 10.1742 105.328 10.1742C106.175 10.1742 106.975 10.3869 107.684 10.7649C108.114 10.9942 108.51 11.2843 108.864 11.6249C108.875 11.6283 108.886 11.6323 108.897 11.6356C109.032 11.6829 109.178 11.7083 109.329 11.7083C110.043 11.7083 110.621 11.1429 110.621 10.4449C110.621 10.2149 110.558 9.99889 110.448 9.81355C110.441 9.80089 110.435 9.78755 110.428 9.77355C110.1 9.46955 109.745 9.19354 109.37 8.94887C108.135 8.14552 106.669 7.68018 105.095 7.68018C100.708 7.68018 97.1507 11.3016 97.1507 15.769C97.1507 20.2364 100.708 23.8578 105.095 23.8578C106.532 23.8578 107.88 23.4692 109.042 22.7905C109.558 22.4892 110.036 22.1318 110.471 21.7251C110.474 21.7185 110.477 21.7125 110.48 21.7065C110.57 21.5345 110.621 21.3391 110.621 21.1318C110.621 20.4344 110.043 19.8691 109.329 19.8691C109.136 19.8691 108.952 19.9104 108.787 19.9858C108.623 20.1371 108.451 20.2778 108.272 20.4071C108.271 20.4078 108.27 20.4084 108.27 20.4091C108.257 20.4278 108.236 20.4404 108.211 20.4498C107.919 20.6531 107.607 20.8271 107.279 20.9665C106.676 21.2225 106.018 21.3631 105.328 21.3631C102.422 21.3631 100.066 18.8584 100.066 15.769ZM131.643 10.2896V9.31488C131.643 8.56886 131.019 7.95818 130.256 7.95818C129.493 7.95818 128.868 8.56886 128.868 9.31488V22.2178C128.868 22.9638 129.493 23.5745 130.256 23.5745C131.019 23.5745 131.643 22.9638 131.643 22.2178V12.2589C133.494 10.2202 136.833 8.6762 138.032 12.2589V22.2178C138.032 22.9638 138.656 23.5745 139.419 23.5745C140.182 23.5745 140.807 22.9638 140.807 22.2178V12.2589C143.516 9.59955 146.014 9.30354 147.483 12.2589V22.2178C147.483 22.9638 148.108 23.5745 148.871 23.5745C149.634 23.5745 150.259 22.9638 150.259 22.2178V11.3463C149.878 9.79222 149.06 8.77753 148.033 8.23552C145.832 7.07416 142.673 8.08685 140.807 10.6296C140.679 10.2456 140.514 9.90156 140.318 9.59755C138.592 6.92616 134.429 7.3095 131.643 10.2896ZM119.552 7.68018C123.939 7.68018 127.496 11.3016 127.496 15.769C127.496 20.2364 123.939 23.8578 119.552 23.8578C115.164 23.8578 111.607 20.2364 111.607 15.769C111.607 11.3016 115.164 7.68018 119.552 7.68018ZM119.515 10.1742C122.255 10.1742 124.475 12.6789 124.475 15.769C124.475 18.8584 122.255 21.3631 119.515 21.3631C116.775 21.3631 114.555 18.8584 114.555 15.769C114.555 12.6789 116.775 10.1742 119.515 10.1742Z" fill="#191825" fill-opacity="0.5"/>
<path fill-rule="evenodd" clip-rule="evenodd" d="M77.8027 0C86.8402 0 94.1664 7.16348 94.1664 15.9997C94.1664 24.8365 86.8402 32 77.8027 32C68.7659 32 61.4398 24.8365 61.4398 15.9997C61.4398 7.16348 68.7659 0 77.8027 0Z" fill="#191825" fill-opacity="0.5"/>
</svg>
