<svg width="213" height="32" viewBox="0 0 213 32" fill="none" xmlns="http://www.w3.org/2000/svg">
<path d="M23.1813 19.2268C25.003 24.1623 30.4935 26.6887 35.4305 24.8713C40.3647 23.0411 42.8967 17.5562 41.068 12.6192C39.2448 7.67656 33.7627 5.1544 28.8187 6.97612C23.8789 8.80489 21.3567 14.287 23.1813 19.2268Z" fill="white"/>
<path d="M10.9883 25.4219C16.2544 25.4219 20.5234 21.1529 20.5234 15.8868C20.5234 10.6208 16.2544 6.35181 10.9883 6.35181C5.72228 6.35181 1.45329 10.6208 1.45329 15.8868C1.45329 21.1529 5.72228 25.4219 10.9883 25.4219Z" fill="white"/>
<path d="M12.614 15.7853C12.614 16.7569 11.8246 17.5534 10.853 17.5534C9.87723 17.5534 9.08923 16.7583 9.08923 15.7853C9.08923 14.8151 9.87723 14.0286 10.853 14.0286C11.8246 14.03 12.614 14.8151 12.614 15.7853Z" fill="#191825" fill-opacity="0.5"/>
<path d="M33.8628 15.7853C33.8628 16.7569 33.0762 17.5534 32.1046 17.5534C31.126 17.5534 30.3408 16.7583 30.3408 15.7853C30.3408 14.8151 31.126 14.0286 32.1046 14.0286C33.0776 14.03 33.8628 14.8151 33.8628 15.7853Z" fill="#191825" fill-opacity="0.5"/>
<path d="M5.61385 15.7854C5.61385 18.6761 7.96513 21.0231 10.8559 21.0231C13.7395 21.0231 16.0894 18.6761 16.0894 15.7854C16.0894 12.9017 13.7381 10.5532 10.8559 10.5532C7.96654 10.556 5.61385 12.9031 5.61385 15.7854ZM7.42002 15.7854C7.42002 13.8944 8.96495 12.3566 10.8587 12.3566C12.7496 12.3566 14.286 13.8987 14.286 15.7854C14.286 17.6819 12.7496 19.2226 10.8587 19.2226C8.96495 19.224 7.42002 17.6847 7.42002 15.7854Z" fill="#191825" fill-opacity="0.5"/>
<path d="M26.8654 15.7854C26.8654 18.6761 29.2139 21.0231 32.1032 21.0231C34.9883 21.0231 37.3353 18.6761 37.3353 15.7854C37.3353 12.9017 34.9883 10.5532 32.1032 10.5532C29.2153 10.556 26.8654 12.9031 26.8654 15.7854ZM28.6716 15.7854C28.6716 13.8944 30.2123 12.3566 32.1074 12.3566C33.9983 12.3566 35.5334 13.8987 35.5334 15.7854C35.5334 17.6819 33.9983 19.2226 32.1074 19.2226C30.2094 19.224 28.6716 17.6847 28.6716 15.7854Z" fill="#191825" fill-opacity="0.5"/>
<path d="M28.4518 5.97191C29.5561 5.5652 30.6858 5.36749 31.8014 5.33643C28.7624 3.9765 25.3224 3.28735 21.5109 3.28735C17.7291 3.28735 14.2382 3.99203 11.2006 5.29124C16.6982 5.39997 21.1677 9.70571 21.5533 15.1327C21.6465 13.8872 21.9515 12.6558 22.4895 11.4893C23.6743 8.90924 25.794 6.95196 28.4518 5.97191Z" fill="white"/>
<path d="M40.65 9.6225C41.1471 7.49434 42.7245 5.36477 42.7245 5.36477L35.6452 5.36054C31.6756 2.79743 26.8544 1.4375 21.5135 1.4375C15.9693 1.4375 10.9631 2.82991 7.01608 5.41137L0.380249 5.41702C0.380249 5.41702 1.9393 7.52258 2.44344 9.63521C1.15271 11.3905 0.385898 13.5469 0.385898 15.8883C0.385898 21.7334 5.14353 26.4882 10.9914 26.4882C14.334 26.4882 17.3151 24.9305 19.2597 22.5101L21.5178 25.8908L23.7928 22.4804C24.8166 23.7824 26.137 24.8387 27.6847 25.5547C30.2592 26.7381 33.1442 26.8553 35.8006 25.8739C41.2869 23.8446 44.1042 17.7284 42.0749 12.2492C41.719 11.2846 41.2332 10.4077 40.65 9.6225ZM21.5121 3.28887C25.3236 3.28887 28.7637 3.97801 31.8027 5.33935C30.6856 5.36901 29.5573 5.56813 28.453 5.97201C25.7953 6.95206 23.6756 8.90935 22.4936 11.4852C21.9555 12.6516 21.6519 13.883 21.5573 15.1286C21.169 9.7044 16.6994 5.39866 11.2018 5.2871C14.238 3.99213 17.7275 3.28887 21.5121 3.28887ZM17.9986 20.6248C16.4763 22.8702 13.9005 24.3501 10.9885 24.3501C6.31988 24.3501 2.52111 20.5485 2.52111 15.8898C2.52111 11.2183 6.32129 7.42373 10.9885 7.42373C15.6558 7.42373 19.4546 11.2183 19.4546 15.8898C19.4546 16.175 19.3995 16.4433 19.3698 16.7187C19.2286 18.1492 18.7682 19.4894 17.9986 20.6248ZM35.0592 23.8672C32.9381 24.6467 30.6376 24.5605 28.5829 23.613C27.1255 22.9379 25.9322 21.8802 25.0722 20.5669C24.722 20.0359 24.4141 19.4725 24.1868 18.8553C23.9284 18.1577 23.7998 17.4389 23.7306 16.7145C23.5894 15.2458 23.8027 13.7602 24.4353 12.3833C25.3843 10.3286 27.0733 8.7653 29.1944 7.98013C33.575 6.3646 38.4512 8.61138 40.0696 12.9905C41.6865 17.3697 39.4383 22.246 35.0592 23.8672Z" fill="#191825" fill-opacity="0.5"/>
<path d="M55.2323 2.98674L52.1283 4.05859C52.1283 4.05859 52.1283 7.77545 52.1283 8.10872C51.8035 8.10872 48.6882 8.10872 48.6882 8.10872V10.8243C48.6882 10.8243 51.7075 10.8243 52.0351 10.8243C52.0351 11.1774 52.0351 19.5431 52.0351 19.5431C52.0351 23.6865 53.4459 25.3867 56.9156 25.3867C57.7954 25.3867 58.6356 25.278 59.4787 25.0478L59.6157 25.0139L59.5776 22.198L59.3403 22.2884C58.6582 22.5243 58.1244 22.6401 57.7121 22.6401C56.0824 22.6401 55.478 21.7235 55.478 19.2494C55.478 19.2494 55.478 11.176 55.478 10.8286C55.8085 10.8286 59.4476 10.8286 59.4476 10.8286V8.10872C59.4476 8.10872 55.8099 8.10872 55.478 8.10872C55.478 7.77262 55.478 2.90625 55.478 2.90625L55.2323 2.98674Z" fill="#191825" fill-opacity="0.5"/>
<path d="M65.9647 10.8596C65.9647 9.9035 65.9647 8.10862 65.9647 8.10862H62.8156V25.0873H66.2585V16.5648C66.2585 12.9919 67.7596 11.0234 70.4795 11.0234C70.8735 11.0234 71.2562 11.0827 71.7222 11.214L71.9453 11.2776L72.0583 7.92645L70.5769 7.81348C68.5815 7.81207 66.9702 8.88956 65.9647 10.8596Z" fill="#191825" fill-opacity="0.5"/>
<path d="M78.1945 8.1072H74.9352V25.0872H78.3781V8.1072H78.1945ZM74.6019 3.13209C74.6019 4.26183 75.5227 5.17834 76.6496 5.17834C77.7793 5.17834 78.6972 4.26183 78.6972 3.13209C78.6972 2.00376 77.7793 1.08301 76.6496 1.08301C75.5227 1.08019 74.6019 2.00376 74.6019 3.13209Z" fill="#191825" fill-opacity="0.5"/>
<path d="M90.5371 7.70898C88.1745 7.70898 86.1876 8.82743 84.8629 10.8624C84.8629 10.049 84.8629 8.10439 84.8629 8.10439H81.7152V31.9999H85.1609C85.1609 31.9999 85.1609 23.6553 85.1609 22.7374C86.4036 24.4278 88.1858 25.357 90.4043 25.357C94.7567 25.357 97.5683 21.7856 97.5683 16.271C97.5683 11.1505 94.7411 7.70898 90.5371 7.70898ZM89.5754 22.5722C86.8513 22.5722 85.1595 20.2435 85.1595 16.5026C85.1595 12.8917 86.9445 10.5588 89.7067 10.5588C92.3687 10.5588 93.9602 12.7702 93.9602 16.4673C93.9616 20.2308 92.2797 22.5722 89.5754 22.5722Z" fill="#191825" fill-opacity="0.5"/>
<path d="M107.631 7.70898C105.526 7.70898 103.681 8.10722 101.989 8.92063L101.885 8.97147L101.922 11.9102L102.193 11.7577C103.81 10.8539 105.341 10.3921 106.734 10.3921C109.228 10.3921 110.66 11.8213 110.66 14.3194C110.66 14.3194 110.66 14.3914 110.66 14.4649C110.357 14.4649 108.69 14.4649 108.69 14.4649C103.022 14.4649 99.9037 16.5182 99.9037 20.2407C99.9037 23.2303 102.155 25.3203 105.377 25.3203C107.748 25.3203 109.583 24.3882 110.89 22.6343C110.89 23.3164 110.89 25.0859 110.89 25.0859H114.001V14.8108C114 10.1012 111.858 7.70898 107.631 7.70898ZM110.655 17.919C110.655 20.8437 108.895 22.736 106.172 22.736C104.505 22.736 103.341 21.6401 103.341 20.0726C103.341 18.0122 105.311 16.8811 108.887 16.8811C108.887 16.8811 110.359 16.8811 110.657 16.8811C110.655 17.1452 110.655 17.919 110.655 17.919Z" fill="#191825" fill-opacity="0.5"/>
<path d="M128.623 0C128.623 0 128.623 9.46584 128.623 10.412C127.353 8.64678 125.587 7.71192 123.317 7.71192C119.105 7.71192 116.275 11.1802 116.275 16.3347C116.275 21.6445 119.146 25.3529 123.248 25.3529C125.678 25.3529 127.574 24.2768 128.887 22.1853C128.887 23.0312 128.887 25.0888 128.887 25.0888H132.07V0H128.623ZM124.141 22.5031C121.517 22.5031 119.887 20.2154 119.887 16.5324C119.887 12.8452 121.531 10.4614 124.078 10.4614C126.923 10.4614 128.62 12.7294 128.62 16.5324C128.623 20.1659 126.869 22.5031 124.141 22.5031Z" fill="#191825" fill-opacity="0.5"/>
<path d="M147.455 8.10742L142.573 17.9122L138.059 8.10742H134.18L142.501 25.0875L151.047 8.10742H147.455Z" fill="#191825" fill-opacity="0.5"/>
<path d="M156.059 8.1072H152.799V25.0872H156.246V8.1072H156.059ZM152.47 3.13209C152.47 4.26183 153.389 5.17834 154.517 5.17834C155.651 5.17834 156.565 4.26183 156.565 3.13209C156.565 2.00376 155.649 1.08301 154.517 1.08301C153.39 1.08019 152.47 2.00376 152.47 3.13209Z" fill="#191825" fill-opacity="0.5"/>
<path d="M160.283 12.4611C160.283 14.849 161.924 16.1073 164.954 17.5901C166.865 18.5292 167.863 19.0828 167.863 20.406C167.863 21.7631 166.637 22.64 164.734 22.64C163.388 22.64 161.894 22.2616 160.414 21.5343L160.163 21.41L160.051 24.4039L160.165 24.4462C161.58 25.0097 163.067 25.2851 164.604 25.2851C168.815 25.2851 171.533 23.2784 171.533 20.173C171.533 17.5844 169.812 16.2697 166.828 14.8773C164.643 13.8506 163.727 13.2533 163.727 12.1645C163.727 11.1336 164.746 10.4614 166.322 10.4614C167.746 10.4614 169.136 10.7777 170.45 11.4047L170.699 11.5191L170.848 8.59027L170.712 8.55072C169.285 8.12707 167.877 7.91383 166.522 7.91383C162.791 7.90818 160.283 9.73837 160.283 12.4611Z" fill="#191825" fill-opacity="0.5"/>
<path d="M182.277 7.70898C177.102 7.70898 173.89 11.1166 173.89 16.5958C173.89 22.0779 177.105 25.4799 182.277 25.4799C187.475 25.4799 190.702 22.0765 190.702 16.5958C190.702 11.118 187.472 7.70898 182.277 7.70898ZM182.306 22.671C179.447 22.671 177.526 20.2167 177.526 16.5634C177.526 12.8903 179.447 10.4274 182.306 10.4274C185.212 10.4274 187.089 12.838 187.089 16.5634C187.089 20.2746 185.215 22.671 182.306 22.671Z" fill="#191825" fill-opacity="0.5"/>
<path d="M197.053 10.8596C197.053 9.9035 197.053 8.10862 197.053 8.10862H193.904V25.0873H197.347V16.5648C197.347 12.9919 198.84 11.0234 201.564 11.0234C201.955 11.0234 202.335 11.0827 202.792 11.214L203.025 11.2776L203.133 7.92645L201.657 7.81348C199.67 7.81207 198.062 8.88956 197.053 10.8596Z" fill="#191825" fill-opacity="0.5"/>
<path d="M211.346 7.35592C211.911 7.92785 212.207 8.68761 212.207 9.50526C212.207 10.3596 211.888 11.125 211.3 11.6885C210.688 12.2703 209.928 12.5824 209.134 12.5824C208.305 12.5824 207.543 12.2562 206.95 11.6433C206.383 11.0558 206.063 10.3046 206.063 9.50243C206.063 8.68478 206.389 7.89255 206.999 7.29096C207.571 6.73032 208.307 6.42529 209.134 6.42529C209.983 6.42671 210.755 6.74868 211.346 7.35592ZM207.38 7.69343C206.883 8.19052 206.618 8.83024 206.618 9.50526C206.618 10.1633 206.863 10.7692 207.338 11.2521C207.814 11.7492 208.445 12.0175 209.121 12.0175C209.78 12.0175 210.412 11.7647 210.901 11.2903C211.381 10.8285 211.645 10.1958 211.645 9.50385C211.645 8.82741 211.399 8.21311 210.933 7.74286C210.445 7.24577 209.825 6.98452 209.134 6.98452C208.454 6.98452 207.856 7.22741 207.38 7.69343ZM209.191 7.75133C210.154 7.75133 210.648 8.10014 210.648 8.73138C210.648 9.16633 210.39 9.50385 209.931 9.64224L210.688 11.1236H209.662L209.031 9.78628H208.764V11.1236H207.835V7.74992L209.191 7.75133ZM208.757 9.23694H209.081C209.494 9.23694 209.693 9.09149 209.693 8.80199C209.693 8.47154 209.484 8.33597 209.031 8.33597H208.757V9.23694Z" fill="#191825" fill-opacity="0.5"/>
</svg>
